<svg xmlns="http://www.w3.org/2000/svg" width="2200" height="520" viewBox="0 0 2200 520">
<rect width="100%" height="100%" fill="#0B0D0C"/>
<g transform="translate(70,70) scale(0.255)"><polyline points="680,220 520,120 250,130 100,360 100,760 260,990 560,990 690,830 690,610 450,610" fill="none" stroke="#D8D0B4" stroke-width="72" stroke-linecap="square" stroke-linejoin="miter"/><line x1="690" y1="610" x2="690" y2="980" stroke="#D8D0B4" stroke-width="72" stroke-linecap="square" stroke-linejoin="miter"/><polygon points="70,1040 190,1040 130,970" fill="#D8D0B4" opacity="0.95"/><polygon points="610,1040 730,1040 670,970" fill="#D8D0B4" opacity="0.95"/><line x1="570" y1="260" x2="655" y2="200" stroke="#A3C113" stroke-width="26" stroke-linecap="square"/></g><g transform="translate(286.24,70) scale(0.255)"><line x1="120" y1="1000" x2="120" y2="120" stroke="#D8D0B4" stroke-width="72" stroke-linecap="square" stroke-linejoin="miter"/><polyline points="120,120 520,120 690,300 520,530 120,530" fill="none" stroke="#D8D0B4" stroke-width="72" stroke-linecap="square" stroke-linejoin="miter"/><line x1="420" y1="530" x2="710" y2="1000" stroke="#D8D0B4" stroke-width="72" stroke-linecap="square" stroke-linejoin="miter"/><polygon points="70,1040 190,1040 130,970" fill="#D8D0B4" opacity="0.95"/><polygon points="610,1040 730,1040 670,970" fill="#D8D0B4" opacity="0.95"/><line x1="570" y1="260" x2="655" y2="200" stroke="#A3C113" stroke-width="26" stroke-linecap="square"/></g><g transform="translate(502.48,70) scale(0.255)"><polyline points="110,1000 400,120 690,1000" fill="none" stroke="#D8D0B4" stroke-width="72" stroke-linecap="square" stroke-linejoin="miter"/><line x1="220" y1="650" x2="580" y2="650" stroke="#D8D0B4" stroke-width="72" stroke-linecap="square" stroke-linejoin="miter"/><polygon points="70,1040 190,1040 130,970" fill="#D8D0B4" opacity="0.95"/><polygon points="610,1040 730,1040 670,970" fill="#D8D0B4" opacity="0.95"/><line x1="570" y1="260" x2="655" y2="200" stroke="#A3C113" stroke-width="26" stroke-linecap="square"/></g><g transform="translate(718.72,70) scale(0.255)"><line x1="100" y1="120" x2="400" y2="1000" stroke="#D8D0B4" stroke-width="72" stroke-linecap="square" stroke-linejoin="miter"/><line x1="400" y1="1000" x2="700" y2="120" stroke="#D8D0B4" stroke-width="72" stroke-linecap="square" stroke-linejoin="miter"/><polygon points="70,1040 190,1040 130,970" fill="#D8D0B4" opacity="0.95"/><polygon points="610,1040 730,1040 670,970" fill="#D8D0B4" opacity="0.95"/><line x1="570" y1="260" x2="655" y2="200" stroke="#A3C113" stroke-width="26" stroke-linecap="square"/></g><g transform="translate(934.96,70) scale(0.255)"><line x1="130" y1="120" x2="130" y2="1000" stroke="#D8D0B4" stroke-width="72" stroke-linecap="square" stroke-linejoin="miter"/><line x1="130" y1="120" x2="690" y2="120" stroke="#D8D0B4" stroke-width="72" stroke-linecap="square" stroke-linejoin="miter"/><line x1="130" y1="520" x2="570" y2="520" stroke="#D8D0B4" stroke-width="72" stroke-linecap="square" stroke-linejoin="miter"/><line x1="130" y1="1000" x2="700" y2="1000" stroke="#D8D0B4" stroke-width="72" stroke-linecap="square" stroke-linejoin="miter"/><polygon points="70,1040 190,1040 130,970" fill="#D8D0B4" opacity="0.95"/><polygon points="610,1040 730,1040 670,970" fill="#D8D0B4" opacity="0.95"/><line x1="570" y1="260" x2="655" y2="200" stroke="#A3C113" stroke-width="26" stroke-linecap="square"/></g><g transform="translate(1151.2,70) scale(0.255)"><line x1="120" y1="1000" x2="120" y2="120" stroke="#D8D0B4" stroke-width="72" stroke-linecap="square" stroke-linejoin="miter"/><line x1="120" y1="120" x2="680" y2="1000" stroke="#D8D0B4" stroke-width="72" stroke-linecap="square" stroke-linejoin="miter"/><line x1="680" y1="1000" x2="680" y2="120" stroke="#D8D0B4" stroke-width="72" stroke-linecap="square" stroke-linejoin="miter"/><polygon points="70,1040 190,1040 130,970" fill="#D8D0B4" opacity="0.95"/><polygon points="610,1040 730,1040 670,970" fill="#D8D0B4" opacity="0.95"/><line x1="570" y1="260" x2="655" y2="200" stroke="#A3C113" stroke-width="26" stroke-linecap="square"/></g><g transform="translate(1466.89,70) scale(0.255)"><line x1="100" y1="120" x2="400" y2="1000" stroke="#D8D0B4" stroke-width="72" stroke-linecap="square" stroke-linejoin="miter"/><line x1="400" y1="1000" x2="700" y2="120" stroke="#D8D0B4" stroke-width="72" stroke-linecap="square" stroke-linejoin="miter"/><polygon points="70,1040 190,1040 130,970" fill="#D8D0B4" opacity="0.95"/><polygon points="610,1040 730,1040 670,970" fill="#D8D0B4" opacity="0.95"/><line x1="570" y1="260" x2="655" y2="200" stroke="#A3C113" stroke-width="26" stroke-linecap="square"/></g><g transform="translate(1683.13,70) scale(0.255)"><line x1="130" y1="120" x2="130" y2="1000" stroke="#D8D0B4" stroke-width="72" stroke-linecap="square" stroke-linejoin="miter"/><line x1="130" y1="120" x2="690" y2="120" stroke="#D8D0B4" stroke-width="72" stroke-linecap="square" stroke-linejoin="miter"/><line x1="130" y1="520" x2="570" y2="520" stroke="#D8D0B4" stroke-width="72" stroke-linecap="square" stroke-linejoin="miter"/><line x1="130" y1="1000" x2="700" y2="1000" stroke="#D8D0B4" stroke-width="72" stroke-linecap="square" stroke-linejoin="miter"/><polygon points="70,1040 190,1040 130,970" fill="#D8D0B4" opacity="0.95"/><polygon points="610,1040 730,1040 670,970" fill="#D8D0B4" opacity="0.95"/><line x1="570" y1="260" x2="655" y2="200" stroke="#A3C113" stroke-width="26" stroke-linecap="square"/></g><g transform="translate(1899.3700000000001,70) scale(0.255)"><line x1="180" y1="120" x2="620" y2="120" stroke="#D8D0B4" stroke-width="72" stroke-linecap="square" stroke-linejoin="miter"/><line x1="400" y1="120" x2="400" y2="1000" stroke="#D8D0B4" stroke-width="72" stroke-linecap="square" stroke-linejoin="miter"/><line x1="180" y1="1000" x2="620" y2="1000" stroke="#D8D0B4" stroke-width="72" stroke-linecap="square" stroke-linejoin="miter"/><polygon points="70,1040 190,1040 130,970" fill="#D8D0B4" opacity="0.95"/><polygon points="610,1040 730,1040 670,970" fill="#D8D0B4" opacity="0.95"/><line x1="570" y1="260" x2="655" y2="200" stroke="#A3C113" stroke-width="26" stroke-linecap="square"/></g><g transform="translate(2115.61,70) scale(0.255)"><line x1="130" y1="120" x2="130" y2="1000" stroke="#D8D0B4" stroke-width="72" stroke-linecap="square" stroke-linejoin="miter"/><line x1="130" y1="1000" x2="700" y2="1000" stroke="#D8D0B4" stroke-width="72" stroke-linecap="square" stroke-linejoin="miter"/><polygon points="70,1040 190,1040 130,970" fill="#D8D0B4" opacity="0.95"/><polygon points="610,1040 730,1040 670,970" fill="#D8D0B4" opacity="0.95"/><line x1="570" y1="260" x2="655" y2="200" stroke="#A3C113" stroke-width="26" stroke-linecap="square"/></g>
</svg>